# xmcd
#
# Track frame offsets:
#	150
#	22423
#	40924
#	61847
#	82979
#	103181
#	125454
#
# Disc length: 1918 seconds
#
# Revision: 0
# Processed by: cddbd v1.5.2PL0 Copyright (c) Steve Scherf et al.
# Submitted via: EasyCDDAExtractor 2011.3.0.0
#
DISCID=59077c07
DTITLE=변진섭 - MINI ALBUM 1
DYEAR=2011
DGENRE=Ballad
TTITLE0=몹쓸사랑
TTITLE1=눈물이 쓰다
TTITLE2=잊을 수 없어
TTITLE3=내안의 그대
TTITLE4=아름다워
TTITLE5=몹쓸사랑 inst.
TTITLE6=눈물이 쓰다 inst.
EXTD=
EXTT0=
EXTT1=
EXTT2=
EXTT3=
EXTT4=
EXTT5=
EXTT6=
PLAYORDER=
